<svg width="393" height="418" viewBox="0 0 393 418" fill="none" xmlns="http://www.w3.org/2000/svg">
<g filter="url(#filter0_d_211_5694)">
<rect x="140.795" y="158.591" width="163.896" height="106.663" rx="6.32146" transform="rotate(28.4623 140.795 158.591)" fill="#447358"/>
</g>
<g filter="url(#filter1_d_211_5694)">
<path d="M182.538 246.513C184.14 248.917 186.831 250.369 189.719 250.386L270.09 250.877C279.145 250.932 282.239 238.834 274.269 234.535L149.345 167.152C141.375 162.854 132.964 172.084 137.984 179.621L182.538 246.513Z" fill="#447358"/>
</g>
<g filter="url(#filter2_d_211_5694)">
<rect x="56.6153" y="103.531" width="163.896" height="106.663" rx="6.32146" transform="rotate(12.1064 56.6153 103.531)" fill="#702A2A"/>
</g>
<g filter="url(#filter3_d_211_5694)">
<path d="M121.428 176.14C123.642 177.996 126.633 178.631 129.409 177.834L206.665 155.672C215.369 153.175 214.931 140.695 206.074 138.814L67.2299 109.338C58.3721 107.457 52.9013 118.683 59.8402 124.501L121.428 176.14Z" fill="#702A2A"/>
</g>
<g filter="url(#filter4_d_211_5694)">
<rect x="174.886" y="73.6936" width="207.415" height="134.985" rx="8" transform="rotate(18.8186 174.886 73.6936)" fill="#8F7B50"/>
</g>
<g filter="url(#filter5_d_211_5694)">
<path d="M245.606 174.538C248.114 177.198 251.779 178.438 255.387 177.848L355.765 161.421C367.074 159.57 368.369 143.82 357.514 140.146L187.368 82.561C176.513 78.8872 167.977 92.187 175.837 100.526L245.606 174.538Z" fill="#8F7B50"/>
</g>
<g clip-path="url(#clip0_211_5694)" filter="url(#filter6_g_211_5694)">
<path d="M238.945 176.74L243.664 185.177C243.859 185.527 244.185 185.798 244.575 185.936C244.965 186.074 245.39 186.067 245.762 185.917L254.731 182.313C256.239 181.709 257.391 180.523 257.914 179.041L257.987 178.834C258.868 176.34 257.706 173.538 255.241 172.206C253.61 171.325 251.665 171.236 250.019 171.964L249.414 172.231L249.111 171.643C248.287 170.043 246.717 168.891 244.894 168.553C242.14 168.042 239.476 169.494 238.595 171.988L238.522 172.195C237.999 173.676 238.151 175.323 238.945 176.74Z" fill="#FFFCED"/>
</g>
<g filter="url(#filter7_d_211_5694)">
<rect x="83.6402" y="100.851" width="207.415" height="134.985" rx="8" transform="rotate(3.20935 83.6402 100.851)" fill="#B4A37B"/>
</g>
<g filter="url(#filter8_d_211_5694)">
<path d="M178.887 178.947C182.018 180.834 185.882 181.043 189.198 179.503L281.453 136.673C291.847 131.848 288.857 116.329 277.414 115.712L98.0479 106.033C86.6049 105.415 81.9619 120.522 91.7764 126.438L178.887 178.947Z" fill="#B4A37B"/>
</g>
<g clip-path="url(#clip1_211_5694)" filter="url(#filter9_g_211_5694)">
<path d="M173.064 182.86L179.879 189.716C180.162 190.001 180.548 190.174 180.961 190.202C181.374 190.23 181.781 190.109 182.099 189.865L189.768 183.98C191.058 182.993 191.847 181.54 191.953 179.973L191.967 179.754C192.144 177.114 190.271 174.728 187.539 174.108C185.731 173.699 183.834 174.137 182.445 175.28L181.934 175.701L181.483 175.216C180.259 173.897 178.438 173.21 176.591 173.374C173.801 173.623 171.626 175.738 171.449 178.378L171.434 178.597C171.329 180.164 171.918 181.709 173.064 182.86Z" fill="#716942"/>
</g>
<g filter="url(#filter10_d_211_5694)">
<rect x="57.1732" y="163.91" width="207.415" height="134.985" rx="8" transform="rotate(-12.6665 57.1732 163.91)" fill="#A42323"/>
</g>
<g filter="url(#filter11_d_211_5694)">
<path d="M170.15 212.972C173.678 213.931 177.452 213.074 180.22 210.686L257.24 144.253C265.918 136.768 258.797 122.66 247.621 125.196L72.4489 164.953C61.2734 167.489 60.9399 183.289 71.9984 186.295L170.15 212.972Z" fill="#A42323"/>
</g>
<g opacity="0.85" filter="url(#filter12_d_211_5694)">
<rect x="69" y="355" width="262" height="46" rx="4.96648" fill="white"/>
<rect x="141.366" y="364.96" width="117.269" height="26.8994" rx="4.96648" fill="white"/>
<rect width="11.9195" height="11.9195" transform="translate(148.815 372.409)" fill="white"/>
<path fill-rule="evenodd" clip-rule="evenodd" d="M160.258 378.499C160.258 378.094 160.222 377.705 160.154 377.331H154.775V379.54H157.849C157.717 380.254 157.314 380.859 156.709 381.264V382.697H158.555C159.635 381.703 160.258 380.238 160.258 378.499Z" fill="#4285F4"/>
<path fill-rule="evenodd" clip-rule="evenodd" d="M154.775 384.081C156.317 384.081 157.61 383.569 158.555 382.697L156.709 381.264C156.198 381.607 155.544 381.809 154.775 381.809C153.288 381.809 152.028 380.804 151.579 379.454H149.671V380.934C150.611 382.801 152.542 384.081 154.775 384.081Z" fill="#34A853"/>
<path fill-rule="evenodd" clip-rule="evenodd" d="M151.579 379.455C151.465 379.112 151.4 378.746 151.4 378.369C151.4 377.993 151.465 377.627 151.579 377.284V375.804H149.671C149.284 376.575 149.064 377.448 149.064 378.369C149.064 379.291 149.284 380.163 149.671 380.934L151.579 379.455Z" fill="#FBBC05"/>
<path fill-rule="evenodd" clip-rule="evenodd" d="M154.775 374.929C155.614 374.929 156.367 375.218 156.958 375.784L158.597 374.145C157.608 373.224 156.315 372.658 154.775 372.658C152.542 372.658 150.611 373.938 149.671 375.804L151.579 377.284C152.028 375.934 153.288 374.929 154.775 374.929Z" fill="#EA4335"/>
<path d="M173.326 380.444V381.409H169.78V380.444H173.326ZM170.12 374.348V381.409H168.902V374.348H170.12ZM173.927 378.844V378.732C173.927 378.354 173.982 378.003 174.092 377.68C174.202 377.353 174.36 377.07 174.567 376.831C174.777 376.589 175.033 376.401 175.334 376.268C175.638 376.133 175.98 376.065 176.362 376.065C176.747 376.065 177.089 376.133 177.39 376.268C177.694 376.401 177.951 376.589 178.161 376.831C178.371 377.07 178.531 377.353 178.641 377.68C178.751 378.003 178.806 378.354 178.806 378.732V378.844C178.806 379.222 178.751 379.573 178.641 379.896C178.531 380.22 178.371 380.503 178.161 380.745C177.951 380.984 177.696 381.172 177.395 381.308C177.094 381.44 176.753 381.506 176.372 381.506C175.987 381.506 175.642 381.44 175.338 381.308C175.038 381.172 174.782 380.984 174.572 380.745C174.362 380.503 174.202 380.22 174.092 379.896C173.982 379.573 173.927 379.222 173.927 378.844ZM175.096 378.732V378.844C175.096 379.08 175.12 379.303 175.169 379.513C175.217 379.723 175.293 379.908 175.397 380.066C175.5 380.224 175.633 380.349 175.794 380.439C175.956 380.53 176.148 380.575 176.372 380.575C176.588 380.575 176.776 380.53 176.934 380.439C177.096 380.349 177.228 380.224 177.332 380.066C177.435 379.908 177.511 379.723 177.56 379.513C177.612 379.303 177.637 379.08 177.637 378.844V378.732C177.637 378.499 177.612 378.28 177.56 378.073C177.511 377.862 177.434 377.677 177.327 377.515C177.224 377.353 177.091 377.227 176.929 377.137C176.771 377.043 176.582 376.996 176.362 376.996C176.142 376.996 175.951 377.043 175.79 377.137C175.631 377.227 175.5 377.353 175.397 377.515C175.293 377.677 175.217 377.862 175.169 378.073C175.12 378.28 175.096 378.499 175.096 378.732ZM183.147 376.162H184.209V381.264C184.209 381.736 184.109 382.137 183.909 382.467C183.708 382.797 183.428 383.047 183.07 383.219C182.711 383.393 182.295 383.48 181.823 383.48C181.623 383.48 181.399 383.451 181.154 383.393C180.911 383.335 180.675 383.241 180.446 383.112C180.219 382.986 180.03 382.819 179.878 382.612L180.426 381.924C180.614 382.147 180.821 382.31 181.047 382.413C181.273 382.517 181.511 382.569 181.76 382.569C182.028 382.569 182.256 382.519 182.444 382.418C182.635 382.321 182.782 382.177 182.885 381.987C182.989 381.796 183.04 381.563 183.04 381.288V377.35L183.147 376.162ZM179.582 378.844V378.742C179.582 378.344 179.631 377.982 179.728 377.656C179.825 377.326 179.964 377.043 180.145 376.807C180.326 376.567 180.546 376.385 180.805 376.259C181.063 376.129 181.356 376.065 181.682 376.065C182.022 376.065 182.311 376.126 182.551 376.249C182.793 376.372 182.995 376.548 183.157 376.778C183.318 377.004 183.445 377.276 183.535 377.592C183.629 377.906 183.698 378.255 183.744 378.64V378.965C183.702 379.34 183.63 379.683 183.53 379.993C183.43 380.304 183.297 380.572 183.133 380.798C182.968 381.025 182.764 381.199 182.521 381.322C182.282 381.445 181.999 381.506 181.673 381.506C181.353 381.506 181.063 381.44 180.805 381.308C180.549 381.175 180.329 380.989 180.145 380.75C179.964 380.511 179.825 380.229 179.728 379.906C179.631 379.579 179.582 379.225 179.582 378.844ZM180.751 378.742V378.844C180.751 379.083 180.774 379.306 180.819 379.513C180.868 379.72 180.94 379.903 181.037 380.061C181.138 380.216 181.264 380.339 181.416 380.43C181.571 380.517 181.754 380.561 181.964 380.561C182.239 380.561 182.463 380.503 182.638 380.386C182.816 380.27 182.951 380.113 183.045 379.916C183.142 379.715 183.21 379.492 183.249 379.246V378.368C183.23 378.178 183.189 378 183.128 377.835C183.07 377.67 182.99 377.526 182.89 377.403C182.79 377.277 182.664 377.18 182.512 377.112C182.36 377.041 182.18 377.006 181.973 377.006C181.763 377.006 181.581 377.051 181.425 377.141C181.27 377.232 181.142 377.356 181.042 377.515C180.945 377.673 180.872 377.858 180.824 378.068C180.775 378.278 180.751 378.503 180.751 378.742ZM189.312 374.348V381.409H188.094V374.348H189.312ZM191.868 377.282V381.409H190.699V376.162H191.8L191.868 377.282ZM191.659 378.592L191.281 378.587C191.284 378.215 191.336 377.874 191.436 377.563C191.539 377.253 191.682 376.986 191.863 376.763C192.047 376.54 192.267 376.369 192.522 376.249C192.778 376.126 193.062 376.065 193.376 376.065C193.628 376.065 193.856 376.1 194.06 376.171C194.267 376.239 194.443 376.351 194.588 376.506C194.737 376.661 194.85 376.863 194.928 377.112C195.006 377.358 195.044 377.66 195.044 378.019V381.409H193.871V378.014C193.871 377.762 193.833 377.563 193.759 377.418C193.688 377.269 193.583 377.164 193.444 377.103C193.308 377.038 193.138 377.006 192.935 377.006C192.734 377.006 192.555 377.048 192.396 377.132C192.238 377.216 192.104 377.331 191.994 377.476C191.887 377.622 191.804 377.79 191.746 377.98C191.688 378.171 191.659 378.375 191.659 378.592ZM200.137 380.245L201.349 376.162H202.096L201.893 377.384L200.67 381.409H200.001L200.137 380.245ZM199.424 376.162L200.37 380.265L200.447 381.409H199.7L198.279 376.162H199.424ZM203.231 380.216L204.148 376.162H205.288L203.871 381.409H203.125L203.231 380.216ZM202.222 376.162L203.42 380.197L203.571 381.409H202.901L201.665 377.379L201.461 376.162H202.222ZM207.334 376.162V381.409H206.161V376.162H207.334ZM206.083 374.784C206.083 374.606 206.141 374.459 206.258 374.343C206.377 374.223 206.542 374.163 206.752 374.163C206.959 374.163 207.123 374.223 207.242 374.343C207.362 374.459 207.422 374.606 207.422 374.784C207.422 374.959 207.362 375.104 207.242 375.221C207.123 375.337 206.959 375.395 206.752 375.395C206.542 375.395 206.377 375.337 206.258 375.221C206.141 375.104 206.083 374.959 206.083 374.784ZM211.02 376.162V377.015H208.062V376.162H211.02ZM208.916 374.876H210.084V379.959C210.084 380.121 210.107 380.245 210.152 380.333C210.201 380.417 210.267 380.473 210.351 380.503C210.435 380.532 210.534 380.546 210.647 380.546C210.728 380.546 210.805 380.541 210.88 380.532C210.954 380.522 211.014 380.512 211.059 380.503L211.064 381.395C210.967 381.424 210.854 381.45 210.725 381.473C210.599 381.495 210.453 381.506 210.288 381.506C210.02 381.506 209.782 381.46 209.575 381.366C209.368 381.269 209.207 381.112 209.09 380.895C208.974 380.679 208.916 380.391 208.916 380.032V374.876ZM213.077 373.96V381.409H211.913V373.96H213.077ZM212.873 378.592L212.495 378.587C212.498 378.225 212.548 377.89 212.645 377.583C212.745 377.276 212.885 377.009 213.062 376.783C213.243 376.553 213.46 376.377 213.712 376.254C213.964 376.128 214.244 376.065 214.551 376.065C214.81 376.065 215.043 376.1 215.25 376.171C215.46 376.243 215.641 376.357 215.793 376.516C215.945 376.671 216.06 376.875 216.137 377.127C216.218 377.376 216.259 377.68 216.259 378.039V381.409H215.085V378.029C215.085 377.777 215.048 377.576 214.973 377.428C214.902 377.279 214.797 377.172 214.658 377.107C214.519 377.04 214.349 377.006 214.149 377.006C213.939 377.006 213.753 377.048 213.591 377.132C213.433 377.216 213.3 377.331 213.193 377.476C213.087 377.622 213.006 377.79 212.951 377.98C212.899 378.171 212.873 378.375 212.873 378.592ZM225.454 377.801V380.498C225.354 380.63 225.197 380.776 224.984 380.934C224.774 381.089 224.494 381.224 224.145 381.337C223.796 381.45 223.361 381.506 222.84 381.506C222.397 381.506 221.991 381.432 221.623 381.283C221.254 381.131 220.936 380.91 220.667 380.619C220.402 380.328 220.197 379.974 220.051 379.557C219.906 379.136 219.833 378.658 219.833 378.121V377.631C219.833 377.098 219.899 376.622 220.032 376.205C220.168 375.785 220.362 375.429 220.614 375.138C220.866 374.847 221.17 374.627 221.526 374.479C221.885 374.327 222.29 374.251 222.743 374.251C223.322 374.251 223.8 374.348 224.179 374.542C224.56 374.733 224.855 374.998 225.061 375.337C225.268 375.677 225.399 376.065 225.454 376.501H224.261C224.222 376.255 224.146 376.036 224.033 375.842C223.923 375.648 223.765 375.496 223.558 375.386C223.354 375.273 223.089 375.216 222.763 375.216C222.481 375.216 222.234 375.269 222.02 375.376C221.807 375.483 221.629 375.64 221.487 375.846C221.348 376.053 221.243 376.306 221.172 376.603C221.101 376.901 221.065 377.24 221.065 377.622V378.121C221.065 378.509 221.105 378.853 221.186 379.154C221.27 379.455 221.39 379.709 221.545 379.916C221.704 380.123 221.896 380.279 222.122 380.386C222.349 380.49 222.604 380.541 222.889 380.541C223.167 380.541 223.395 380.519 223.572 380.473C223.75 380.425 223.891 380.368 223.994 380.304C224.101 380.236 224.184 380.171 224.242 380.11V378.708H222.772V377.801H225.454ZM226.463 378.844V378.732C226.463 378.354 226.518 378.003 226.628 377.68C226.738 377.353 226.896 377.07 227.103 376.831C227.313 376.589 227.569 376.401 227.87 376.268C228.174 376.133 228.516 376.065 228.898 376.065C229.283 376.065 229.625 376.133 229.926 376.268C230.23 376.401 230.487 376.589 230.697 376.831C230.907 377.07 231.067 377.353 231.177 377.68C231.287 378.003 231.342 378.354 231.342 378.732V378.844C231.342 379.222 231.287 379.573 231.177 379.896C231.067 380.22 230.907 380.503 230.697 380.745C230.487 380.984 230.232 381.172 229.931 381.308C229.63 381.44 229.289 381.506 228.908 381.506C228.523 381.506 228.178 381.44 227.874 381.308C227.574 381.172 227.318 380.984 227.108 380.745C226.898 380.503 226.738 380.22 226.628 379.896C226.518 379.573 226.463 379.222 226.463 378.844ZM227.632 378.732V378.844C227.632 379.08 227.656 379.303 227.705 379.513C227.753 379.723 227.829 379.908 227.933 380.066C228.036 380.224 228.169 380.349 228.33 380.439C228.492 380.53 228.684 380.575 228.908 380.575C229.124 380.575 229.312 380.53 229.47 380.439C229.632 380.349 229.764 380.224 229.868 380.066C229.971 379.908 230.047 379.723 230.096 379.513C230.148 379.303 230.173 379.08 230.173 378.844V378.732C230.173 378.499 230.148 378.28 230.096 378.073C230.047 377.862 229.97 377.677 229.863 377.515C229.76 377.353 229.627 377.227 229.465 377.137C229.307 377.043 229.118 376.996 228.898 376.996C228.678 376.996 228.487 377.043 228.326 377.137C228.167 377.227 228.036 377.353 227.933 377.515C227.829 377.677 227.753 377.862 227.705 378.073C227.656 378.28 227.632 378.499 227.632 378.732ZM232.099 378.844V378.732C232.099 378.354 232.154 378.003 232.264 377.68C232.374 377.353 232.532 377.07 232.739 376.831C232.949 376.589 233.205 376.401 233.505 376.268C233.809 376.133 234.152 376.065 234.534 376.065C234.918 376.065 235.261 376.133 235.562 376.268C235.866 376.401 236.123 376.589 236.333 376.831C236.543 377.07 236.703 377.353 236.813 377.68C236.923 378.003 236.978 378.354 236.978 378.732V378.844C236.978 379.222 236.923 379.573 236.813 379.896C236.703 380.22 236.543 380.503 236.333 380.745C236.123 380.984 235.867 381.172 235.567 381.308C235.266 381.44 234.925 381.506 234.543 381.506C234.159 381.506 233.814 381.44 233.51 381.308C233.21 381.172 232.954 380.984 232.744 380.745C232.534 380.503 232.374 380.22 232.264 379.896C232.154 379.573 232.099 379.222 232.099 378.844ZM233.268 378.732V378.844C233.268 379.08 233.292 379.303 233.341 379.513C233.389 379.723 233.465 379.908 233.568 380.066C233.672 380.224 233.805 380.349 233.966 380.439C234.128 380.53 234.32 380.575 234.543 380.575C234.76 380.575 234.948 380.53 235.106 380.439C235.268 380.349 235.4 380.224 235.504 380.066C235.607 379.908 235.683 379.723 235.732 379.513C235.783 379.303 235.809 379.08 235.809 378.844V378.732C235.809 378.499 235.783 378.28 235.732 378.073C235.683 377.862 235.606 377.677 235.499 377.515C235.395 377.353 235.263 377.227 235.101 377.137C234.943 377.043 234.754 376.996 234.534 376.996C234.314 376.996 234.123 377.043 233.961 377.137C233.803 377.227 233.672 377.353 233.568 377.515C233.465 377.677 233.389 377.862 233.341 378.073C233.292 378.28 233.268 378.499 233.268 378.732ZM241.319 376.162H242.381V381.264C242.381 381.736 242.281 382.137 242.08 382.467C241.88 382.797 241.6 383.047 241.241 383.219C240.882 383.393 240.467 383.48 239.995 383.48C239.794 383.48 239.571 383.451 239.326 383.393C239.083 383.335 238.847 383.241 238.617 383.112C238.391 382.986 238.202 382.819 238.05 382.612L238.598 381.924C238.786 382.147 238.992 382.31 239.219 382.413C239.445 382.517 239.683 382.569 239.932 382.569C240.2 382.569 240.428 382.519 240.616 382.418C240.806 382.321 240.954 382.177 241.057 381.987C241.16 381.796 241.212 381.563 241.212 381.288V377.35L241.319 376.162ZM237.754 378.844V378.742C237.754 378.344 237.803 377.982 237.9 377.656C237.997 377.326 238.136 377.043 238.317 376.807C238.498 376.567 238.718 376.385 238.976 376.259C239.235 376.129 239.528 376.065 239.854 376.065C240.194 376.065 240.483 376.126 240.722 376.249C240.965 376.372 241.167 376.548 241.329 376.778C241.49 377.004 241.616 377.276 241.707 377.592C241.801 377.906 241.87 378.255 241.915 378.64V378.965C241.873 379.34 241.802 379.683 241.702 379.993C241.602 380.304 241.469 380.572 241.304 380.798C241.139 381.025 240.936 381.199 240.693 381.322C240.454 381.445 240.171 381.506 239.844 381.506C239.524 381.506 239.235 381.44 238.976 381.308C238.721 381.175 238.501 380.989 238.317 380.75C238.136 380.511 237.997 380.229 237.9 379.906C237.803 379.579 237.754 379.225 237.754 378.844ZM238.923 378.742V378.844C238.923 379.083 238.946 379.306 238.991 379.513C239.039 379.72 239.112 379.903 239.209 380.061C239.309 380.216 239.435 380.339 239.587 380.43C239.743 380.517 239.925 380.561 240.135 380.561C240.41 380.561 240.635 380.503 240.81 380.386C240.987 380.27 241.123 380.113 241.217 379.916C241.314 379.715 241.382 379.492 241.421 379.246V378.368C241.401 378.178 241.361 378 241.299 377.835C241.241 377.67 241.162 377.526 241.062 377.403C240.962 377.277 240.835 377.18 240.684 377.112C240.532 377.041 240.352 377.006 240.145 377.006C239.935 377.006 239.752 377.051 239.597 377.141C239.442 377.232 239.314 377.356 239.214 377.515C239.117 377.673 239.044 377.858 238.996 378.068C238.947 378.278 238.923 378.503 238.923 378.742ZM244.845 373.96V381.409H243.671V373.96H244.845ZM248.439 381.506C248.051 381.506 247.7 381.443 247.386 381.317C247.076 381.188 246.811 381.009 246.591 380.779C246.374 380.549 246.208 380.279 246.091 379.969C245.975 379.659 245.917 379.324 245.917 378.965V378.771C245.917 378.36 245.977 377.989 246.096 377.656C246.216 377.322 246.382 377.038 246.596 376.802C246.809 376.563 247.061 376.38 247.352 376.254C247.643 376.128 247.959 376.065 248.298 376.065C248.673 376.065 249.001 376.128 249.283 376.254C249.564 376.38 249.797 376.558 249.981 376.787C250.169 377.014 250.308 377.284 250.398 377.597C250.492 377.911 250.539 378.257 250.539 378.635V379.135H246.484V378.296H249.385V378.204C249.378 377.993 249.336 377.796 249.258 377.612C249.184 377.428 249.069 377.279 248.914 377.166C248.759 377.053 248.552 376.996 248.293 376.996C248.099 376.996 247.926 377.038 247.774 377.122C247.626 377.203 247.501 377.321 247.401 377.476C247.301 377.631 247.223 377.819 247.168 378.039C247.116 378.255 247.09 378.499 247.09 378.771V378.965C247.09 379.195 247.121 379.408 247.183 379.605C247.247 379.799 247.341 379.969 247.464 380.115C247.587 380.26 247.736 380.375 247.91 380.459C248.085 380.54 248.284 380.58 248.507 380.58C248.788 380.58 249.039 380.524 249.258 380.41C249.478 380.297 249.669 380.137 249.831 379.93L250.447 380.527C250.334 380.692 250.186 380.85 250.005 381.002C249.824 381.151 249.603 381.272 249.341 381.366C249.082 381.46 248.782 381.506 248.439 381.506Z" fill="black" fill-opacity="0.54"/>
</g>
<defs>
<filter id="filter0_d_211_5694" x="86.9939" y="158.784" width="200.855" height="177.816" filterUnits="userSpaceOnUse" color-interpolation-filters="sRGB">
<feFlood flood-opacity="0" result="BackgroundImageFix"/>
<feColorMatrix in="SourceAlpha" type="matrix" values="0 0 0 0 0 0 0 0 0 0 0 0 0 0 0 0 0 0 127 0" result="hardAlpha"/>
<feOffset dy="3.16073"/>
<feGaussianBlur stdDeviation="2.6076"/>
<feComposite in2="hardAlpha" operator="out"/>
<feColorMatrix type="matrix" values="0 0 0 0 0.0533082 0 0 0 0 0.170322 0 0 0 0 0.116691 0 0 0 1 0"/>
<feBlend mode="normal" in2="BackgroundImageFix" result="effect1_dropShadow_211_5694"/>
<feBlend mode="normal" in="SourceGraphic" in2="effect1_dropShadow_211_5694" result="shape"/>
</filter>
<filter id="filter1_d_211_5694" x="133.309" y="166.057" width="148.7" height="91.1414" filterUnits="userSpaceOnUse" color-interpolation-filters="sRGB">
<feFlood flood-opacity="0" result="BackgroundImageFix"/>
<feColorMatrix in="SourceAlpha" type="matrix" values="0 0 0 0 0 0 0 0 0 0 0 0 0 0 0 0 0 0 127 0" result="hardAlpha"/>
<feOffset dy="3.16073"/>
<feGaussianBlur stdDeviation="1.58036"/>
<feComposite in2="hardAlpha" operator="out"/>
<feColorMatrix type="matrix" values="0 0 0 0 0.269231 0 0 0 0 0.0660133 0 0 0 0 0.0660133 0 0 0 0.25 0"/>
<feBlend mode="normal" in2="BackgroundImageFix" result="effect1_dropShadow_211_5694"/>
<feBlend mode="normal" in="SourceGraphic" in2="effect1_dropShadow_211_5694" result="shape"/>
</filter>
<filter id="filter2_d_211_5694" x="30.2138" y="102.66" width="190.684" height="146.727" filterUnits="userSpaceOnUse" color-interpolation-filters="sRGB">
<feFlood flood-opacity="0" result="BackgroundImageFix"/>
<feColorMatrix in="SourceAlpha" type="matrix" values="0 0 0 0 0 0 0 0 0 0 0 0 0 0 0 0 0 0 127 0" result="hardAlpha"/>
<feOffset dy="3.16073"/>
<feGaussianBlur stdDeviation="2.6076"/>
<feComposite in2="hardAlpha" operator="out"/>
<feColorMatrix type="matrix" values="0 0 0 0 0.0533082 0 0 0 0 0.170322 0 0 0 0 0.116691 0 0 0 1 0"/>
<feBlend mode="normal" in2="BackgroundImageFix" result="effect1_dropShadow_211_5694"/>
<feBlend mode="normal" in="SourceGraphic" in2="effect1_dropShadow_211_5694" result="shape"/>
</filter>
<filter id="filter3_d_211_5694" x="53.5342" y="109.128" width="162.587" height="75.3643" filterUnits="userSpaceOnUse" color-interpolation-filters="sRGB">
<feFlood flood-opacity="0" result="BackgroundImageFix"/>
<feColorMatrix in="SourceAlpha" type="matrix" values="0 0 0 0 0 0 0 0 0 0 0 0 0 0 0 0 0 0 127 0" result="hardAlpha"/>
<feOffset dy="3.16073"/>
<feGaussianBlur stdDeviation="1.58036"/>
<feComposite in2="hardAlpha" operator="out"/>
<feColorMatrix type="matrix" values="0 0 0 0 0.269231 0 0 0 0 0.0660133 0 0 0 0 0.0660133 0 0 0 0.25 0"/>
<feBlend mode="normal" in2="BackgroundImageFix" result="effect1_dropShadow_211_5694"/>
<feBlend mode="normal" in="SourceGraphic" in2="effect1_dropShadow_211_5694" result="shape"/>
</filter>
<filter id="filter4_d_211_5694" x="126.894" y="73.2444" width="248.769" height="203.574" filterUnits="userSpaceOnUse" color-interpolation-filters="sRGB">
<feFlood flood-opacity="0" result="BackgroundImageFix"/>
<feColorMatrix in="SourceAlpha" type="matrix" values="0 0 0 0 0 0 0 0 0 0 0 0 0 0 0 0 0 0 127 0" result="hardAlpha"/>
<feOffset dy="4"/>
<feGaussianBlur stdDeviation="3.3"/>
<feComposite in2="hardAlpha" operator="out"/>
<feColorMatrix type="matrix" values="0 0 0 0 0.00485755 0 0 0 0 0.0421172 0 0 0 0 0.0250398 0 0 0 1 0"/>
<feBlend mode="normal" in2="BackgroundImageFix" result="effect1_dropShadow_211_5694"/>
<feBlend mode="normal" in="SourceGraphic" in2="effect1_dropShadow_211_5694" result="shape"/>
</filter>
<filter id="filter5_d_211_5694" x="168.779" y="81.9334" width="200.211" height="104.059" filterUnits="userSpaceOnUse" color-interpolation-filters="sRGB">
<feFlood flood-opacity="0" result="BackgroundImageFix"/>
<feColorMatrix in="SourceAlpha" type="matrix" values="0 0 0 0 0 0 0 0 0 0 0 0 0 0 0 0 0 0 127 0" result="hardAlpha"/>
<feOffset dy="4"/>
<feGaussianBlur stdDeviation="2"/>
<feComposite in2="hardAlpha" operator="out"/>
<feColorMatrix type="matrix" values="0 0 0 0 0.269231 0 0 0 0 0.0660133 0 0 0 0 0.0660133 0 0 0 0.25 0"/>
<feBlend mode="normal" in2="BackgroundImageFix" result="effect1_dropShadow_211_5694"/>
<feBlend mode="normal" in="SourceGraphic" in2="effect1_dropShadow_211_5694" result="shape"/>
</filter>
<filter id="filter6_g_211_5694" x="233.314" y="164.491" width="27.8377" height="27.8377" filterUnits="userSpaceOnUse" color-interpolation-filters="sRGB">
<feFlood flood-opacity="0" result="BackgroundImageFix"/>
<feBlend mode="normal" in="SourceGraphic" in2="BackgroundImageFix" result="shape"/>
<feTurbulence type="fractalNoise" baseFrequency="0.38461539149284363 0.38461539149284363" numOctaves="3" seed="5230" />
<feDisplacementMap in="shape" scale="1.6000000238418579" xChannelSelector="R" yChannelSelector="G" result="displacedImage" width="100%" height="100%" />
<feMerge result="effect1_texture_211_5694">
<feMergeNode in="displacedImage"/>
</feMerge>
</filter>
<filter id="filter7_d_211_5694" x="69.9182" y="98.6862" width="226.977" height="158.715" filterUnits="userSpaceOnUse" color-interpolation-filters="sRGB">
<feFlood flood-opacity="0" result="BackgroundImageFix"/>
<feColorMatrix in="SourceAlpha" type="matrix" values="0 0 0 0 0 0 0 0 0 0 0 0 0 0 0 0 0 0 127 0" result="hardAlpha"/>
<feOffset dy="4"/>
<feGaussianBlur stdDeviation="3.3"/>
<feComposite in2="hardAlpha" operator="out"/>
<feColorMatrix type="matrix" values="0 0 0 0 0.202374 0 0 0 0 0.169507 0 0 0 0 0.0968526 0 0 0 1 0"/>
<feBlend mode="normal" in2="BackgroundImageFix" result="effect1_dropShadow_211_5694"/>
<feBlend mode="normal" in="SourceGraphic" in2="effect1_dropShadow_211_5694" result="shape"/>
</filter>
<filter id="filter8_d_211_5694" x="82.4304" y="106.014" width="209.402" height="82.5118" filterUnits="userSpaceOnUse" color-interpolation-filters="sRGB">
<feFlood flood-opacity="0" result="BackgroundImageFix"/>
<feColorMatrix in="SourceAlpha" type="matrix" values="0 0 0 0 0 0 0 0 0 0 0 0 0 0 0 0 0 0 127 0" result="hardAlpha"/>
<feOffset dy="4"/>
<feGaussianBlur stdDeviation="2"/>
<feComposite in2="hardAlpha" operator="out"/>
<feColorMatrix type="matrix" values="0 0 0 0 0.269231 0 0 0 0 0.0660133 0 0 0 0 0.0660133 0 0 0 0.25 0"/>
<feBlend mode="normal" in2="BackgroundImageFix" result="effect1_dropShadow_211_5694"/>
<feBlend mode="normal" in="SourceGraphic" in2="effect1_dropShadow_211_5694" result="shape"/>
</filter>
<filter id="filter9_g_211_5694" x="169.748" y="170.491" width="23.4945" height="23.4945" filterUnits="userSpaceOnUse" color-interpolation-filters="sRGB">
<feFlood flood-opacity="0" result="BackgroundImageFix"/>
<feBlend mode="normal" in="SourceGraphic" in2="BackgroundImageFix" result="shape"/>
<feTurbulence type="fractalNoise" baseFrequency="0.38461539149284363 0.38461539149284363" numOctaves="3" seed="5230" />
<feDisplacementMap in="shape" scale="1.6000000238418579" xChannelSelector="R" yChannelSelector="G" result="displacedImage" width="100%" height="100%" />
<feMerge result="effect1_texture_211_5694">
<feMergeNode in="displacedImage"/>
</feMerge>
</filter>
<filter id="filter10_d_211_5694" x="52.131" y="117.387" width="242.051" height="187.266" filterUnits="userSpaceOnUse" color-interpolation-filters="sRGB">
<feFlood flood-opacity="0" result="BackgroundImageFix"/>
<feColorMatrix in="SourceAlpha" type="matrix" values="0 0 0 0 0 0 0 0 0 0 0 0 0 0 0 0 0 0 127 0" result="hardAlpha"/>
<feOffset dy="4"/>
<feGaussianBlur stdDeviation="3.3"/>
<feComposite in2="hardAlpha" operator="out"/>
<feColorMatrix type="matrix" values="0 0 0 0 0.143613 0 0 0 0 0.0219337 0 0 0 0 0.0219337 0 0 0 1 0"/>
<feBlend mode="normal" in2="BackgroundImageFix" result="effect1_dropShadow_211_5694"/>
<feBlend mode="normal" in="SourceGraphic" in2="effect1_dropShadow_211_5694" result="shape"/>
</filter>
<filter id="filter11_d_211_5694" x="59.8833" y="124.895" width="205.222" height="96.4617" filterUnits="userSpaceOnUse" color-interpolation-filters="sRGB">
<feFlood flood-opacity="0" result="BackgroundImageFix"/>
<feColorMatrix in="SourceAlpha" type="matrix" values="0 0 0 0 0 0 0 0 0 0 0 0 0 0 0 0 0 0 127 0" result="hardAlpha"/>
<feOffset dy="4"/>
<feGaussianBlur stdDeviation="2"/>
<feComposite in2="hardAlpha" operator="out"/>
<feColorMatrix type="matrix" values="0 0 0 0 0.269231 0 0 0 0 0.0660133 0 0 0 0 0.0660133 0 0 0 0.25 0"/>
<feBlend mode="normal" in2="BackgroundImageFix" result="effect1_dropShadow_211_5694"/>
<feBlend mode="normal" in="SourceGraphic" in2="effect1_dropShadow_211_5694" result="shape"/>
</filter>
<filter id="filter12_d_211_5694" x="52.7" y="338.7" width="294.6" height="78.6" filterUnits="userSpaceOnUse" color-interpolation-filters="sRGB">
<feFlood flood-opacity="0" result="BackgroundImageFix"/>
<feColorMatrix in="SourceAlpha" type="matrix" values="0 0 0 0 0 0 0 0 0 0 0 0 0 0 0 0 0 0 127 0" result="hardAlpha"/>
<feOffset/>
<feGaussianBlur stdDeviation="8.15"/>
<feColorMatrix type="matrix" values="0 0 0 0 0.213058 0 0 0 0 0.0723743 0 0 0 0 0.0723743 0 0 0 0.78 0"/>
<feBlend mode="normal" in2="BackgroundImageFix" result="effect1_dropShadow_211_5694"/>
<feBlend mode="normal" in="SourceGraphic" in2="effect1_dropShadow_211_5694" result="shape"/>
</filter>
<clipPath id="clip0_211_5694">
<rect width="20.5645" height="20.5645" fill="white" transform="translate(240.96 165.291) rotate(19.446)"/>
</clipPath>
<clipPath id="clip1_211_5694">
<rect width="20.5645" height="20.5645" fill="white" transform="translate(171.924 171.291) rotate(3.83683)"/>
</clipPath>
</defs>
</svg>
