<svg width="12" height="12" viewBox="0 0 12 12" fill="none" xmlns="http://www.w3.org/2000/svg">
<rect width="11.9195" height="11.9195" fill="white"/>
<path fill-rule="evenodd" clip-rule="evenodd" d="M11.4428 6.08958C11.4428 5.68458 11.4064 5.29517 11.3389 4.92133H5.95978V7.13062H9.03357C8.90117 7.84455 8.49878 8.44944 7.89388 8.85443V10.2875H9.73972C10.8197 9.29318 11.4428 7.82897 11.4428 6.08958Z" fill="#4285F4"/>
<path fill-rule="evenodd" clip-rule="evenodd" d="M5.95975 11.6711C7.50184 11.6711 8.7947 11.1597 9.73969 10.2874L7.89385 8.85435C7.38242 9.19704 6.72819 9.39953 5.95975 9.39953C4.47217 9.39953 3.21306 8.39484 2.76393 7.04486H0.855789V8.52464C1.79558 10.3912 3.72709 11.6711 5.95975 11.6711Z" fill="#34A853"/>
<path fill-rule="evenodd" clip-rule="evenodd" d="M2.76398 7.04503C2.64976 6.70234 2.58485 6.33629 2.58485 5.95986C2.58485 5.58342 2.64976 5.21737 2.76398 4.87468V3.3949H0.855842C0.469022 4.16594 0.248352 5.03824 0.248352 5.95986C0.248352 6.88148 0.469022 7.75377 0.855842 8.52482L2.76398 7.04503Z" fill="#FBBC05"/>
<path fill-rule="evenodd" clip-rule="evenodd" d="M5.95975 2.51995C6.79829 2.51995 7.55116 2.80812 8.14308 3.37407L9.78122 1.73592C8.7921 0.814304 7.49924 0.248352 5.95975 0.248352C3.72709 0.248352 1.79558 1.52824 0.855789 3.39484L2.76393 4.87462C3.21306 3.52465 4.47217 2.51995 5.95975 2.51995Z" fill="#EA4335"/>
</svg>
