<svg width="295" height="79" viewBox="0 0 295 79" fill="none" xmlns="http://www.w3.org/2000/svg">
<g opacity="0.85" filter="url(#filter0_d_268_12477)">
<rect x="16.3" y="16.3" width="262" height="46" rx="4.96648" fill="white"/>
<rect x="88.6656" y="26.2598" width="117.269" height="26.8994" rx="4.96648" fill="white"/>
<rect width="11.9195" height="11.9195" transform="translate(96.1154 33.7095)" fill="white"/>
<path fill-rule="evenodd" clip-rule="evenodd" d="M107.558 39.7991C107.558 39.3941 107.522 39.0047 107.454 38.6309H102.075V40.8402H105.149C105.017 41.5541 104.614 42.159 104.009 42.564V43.997H105.855C106.935 43.0027 107.558 41.5385 107.558 39.7991Z" fill="#4285F4"/>
<path fill-rule="evenodd" clip-rule="evenodd" d="M102.075 45.3807C103.617 45.3807 104.91 44.8692 105.855 43.9969L104.009 42.5639C103.498 42.9066 102.844 43.1091 102.075 43.1091C100.588 43.1091 99.3284 42.1044 98.8793 40.7544H96.9712V42.2342C97.911 44.1008 99.8425 45.3807 102.075 45.3807Z" fill="#34A853"/>
<path fill-rule="evenodd" clip-rule="evenodd" d="M98.8793 40.7544C98.7651 40.4117 98.7002 40.0456 98.7002 39.6692C98.7002 39.2928 98.7651 38.9267 98.8793 38.584V37.1042H96.9712C96.5844 37.8753 96.3637 38.7476 96.3637 39.6692C96.3637 40.5908 96.5844 41.4631 96.9712 42.2342L98.8793 40.7544Z" fill="#FBBC05"/>
<path fill-rule="evenodd" clip-rule="evenodd" d="M102.075 36.2294C102.914 36.2294 103.667 36.5175 104.258 37.0835L105.897 35.4453C104.907 34.5237 103.615 33.9578 102.075 33.9578C99.8425 33.9578 97.911 35.2376 96.9712 37.1043L98.8793 38.584C99.3284 37.2341 100.588 36.2294 102.075 36.2294Z" fill="#EA4335"/>
<path d="M120.626 41.7443V42.7095H117.08V41.7443H120.626ZM117.42 35.6478V42.7095H116.202V35.6478H117.42ZM121.227 40.1438V40.0322C121.227 39.6539 121.282 39.3031 121.392 38.9798C121.502 38.6532 121.66 38.3703 121.867 38.131C122.077 37.8885 122.333 37.701 122.634 37.5684C122.938 37.4326 123.28 37.3647 123.662 37.3647C124.047 37.3647 124.389 37.4326 124.69 37.5684C124.994 37.701 125.251 37.8885 125.461 38.131C125.671 38.3703 125.831 38.6532 125.941 38.9798C126.051 39.3031 126.106 39.6539 126.106 40.0322V40.1438C126.106 40.5221 126.051 40.8729 125.941 41.1962C125.831 41.5196 125.671 41.8025 125.461 42.045C125.251 42.2843 124.996 42.4718 124.695 42.6076C124.394 42.7402 124.053 42.8065 123.672 42.8065C123.287 42.8065 122.942 42.7402 122.638 42.6076C122.338 42.4718 122.082 42.2843 121.872 42.045C121.662 41.8025 121.502 41.5196 121.392 41.1962C121.282 40.8729 121.227 40.5221 121.227 40.1438ZM122.396 40.0322V40.1438C122.396 40.3798 122.42 40.6029 122.469 40.8131C122.517 41.0233 122.593 41.2076 122.697 41.366C122.8 41.5244 122.933 41.6489 123.094 41.7395C123.256 41.83 123.448 41.8753 123.672 41.8753C123.888 41.8753 124.076 41.83 124.234 41.7395C124.396 41.6489 124.528 41.5244 124.632 41.366C124.735 41.2076 124.811 41.0233 124.86 40.8131C124.912 40.6029 124.937 40.3798 124.937 40.1438V40.0322C124.937 39.7994 124.912 39.5796 124.86 39.3726C124.811 39.1625 124.734 38.9765 124.627 38.8149C124.524 38.6532 124.391 38.5271 124.229 38.4366C124.071 38.3428 123.882 38.2959 123.662 38.2959C123.442 38.2959 123.251 38.3428 123.09 38.4366C122.931 38.5271 122.8 38.6532 122.697 38.8149C122.593 38.9765 122.517 39.1625 122.469 39.3726C122.42 39.5796 122.396 39.7994 122.396 40.0322ZM130.447 37.4617H131.509V42.564C131.509 43.036 131.409 43.437 131.209 43.7668C131.008 44.0966 130.728 44.3472 130.369 44.5185C130.011 44.6932 129.595 44.7805 129.123 44.7805C128.923 44.7805 128.699 44.7514 128.454 44.6932C128.211 44.635 127.975 44.5412 127.746 44.4118C127.519 44.2857 127.33 44.1192 127.178 43.9123L127.726 43.2236C127.914 43.4467 128.121 43.61 128.347 43.7134C128.573 43.8169 128.811 43.8686 129.06 43.8686C129.328 43.8686 129.556 43.8185 129.744 43.7183C129.935 43.6213 130.082 43.4774 130.185 43.2866C130.289 43.0959 130.34 42.8631 130.34 42.5882V38.65L130.447 37.4617ZM126.882 40.1438V40.0419C126.882 39.6442 126.931 39.2821 127.028 38.9555C127.125 38.6257 127.264 38.3428 127.445 38.1068C127.626 37.8675 127.846 37.6848 128.105 37.5587C128.363 37.4294 128.656 37.3647 128.982 37.3647C129.322 37.3647 129.611 37.4261 129.851 37.549C130.093 37.6719 130.295 37.8481 130.457 38.0777C130.618 38.304 130.745 38.5756 130.835 38.8925C130.929 39.2061 130.998 39.5553 131.044 39.9401V40.265C131.002 40.6401 130.93 40.9828 130.83 41.2933C130.73 41.6037 130.597 41.872 130.433 42.0984C130.268 42.3247 130.064 42.4993 129.821 42.6222C129.582 42.745 129.299 42.8065 128.973 42.8065C128.653 42.8065 128.363 42.7402 128.105 42.6076C127.849 42.4751 127.629 42.2891 127.445 42.0499C127.264 41.8106 127.125 41.5293 127.028 41.2059C126.931 40.8794 126.882 40.5253 126.882 40.1438ZM128.051 40.0419V40.1438C128.051 40.3831 128.074 40.6062 128.119 40.8131C128.168 41.02 128.24 41.2027 128.337 41.3612C128.438 41.5164 128.564 41.6392 128.716 41.7298C128.871 41.8171 129.054 41.8607 129.264 41.8607C129.539 41.8607 129.763 41.8025 129.938 41.6861C130.116 41.5697 130.251 41.4129 130.345 41.2157C130.442 41.0152 130.51 40.7921 130.549 40.5463V39.6685C130.53 39.4777 130.489 39.2999 130.428 39.135C130.369 38.9701 130.29 38.8262 130.19 38.7033C130.09 38.5772 129.964 38.4802 129.812 38.4123C129.66 38.3412 129.48 38.3056 129.273 38.3056C129.063 38.3056 128.881 38.3509 128.725 38.4414C128.57 38.5319 128.442 38.6564 128.342 38.8149C128.245 38.9733 128.172 39.1576 128.124 39.3678C128.075 39.5779 128.051 39.8027 128.051 40.0419ZM136.612 35.6478V42.7095H135.394V35.6478H136.612ZM139.168 38.5821V42.7095H137.999V37.4617H139.1L139.168 38.5821ZM138.959 39.8916L138.581 39.8867C138.584 39.5149 138.636 39.1738 138.736 38.8634C138.839 38.553 138.982 38.2862 139.163 38.0631C139.347 37.84 139.567 37.6686 139.822 37.549C140.078 37.4261 140.362 37.3647 140.676 37.3647C140.928 37.3647 141.156 37.4003 141.36 37.4714C141.567 37.5393 141.743 37.6508 141.888 37.806C142.037 37.9613 142.15 38.1633 142.228 38.4123C142.306 38.658 142.344 38.9604 142.344 39.3193V42.7095H141.171V39.3144C141.171 39.0622 141.133 38.8634 141.059 38.7179C140.988 38.5691 140.883 38.464 140.744 38.4026C140.608 38.3379 140.438 38.3056 140.235 38.3056C140.034 38.3056 139.855 38.3476 139.696 38.4317C139.538 38.5158 139.404 38.6306 139.294 38.7761C139.187 38.9216 139.104 39.0897 139.046 39.2805C138.988 39.4712 138.959 39.6749 138.959 39.8916ZM147.437 41.5455L148.649 37.4617H149.396L149.193 38.6839L147.97 42.7095H147.301L147.437 41.5455ZM146.724 37.4617L147.67 41.5649L147.747 42.7095H147L145.579 37.4617H146.724ZM150.531 41.5164L151.448 37.4617H152.588L151.171 42.7095H150.425L150.531 41.5164ZM149.522 37.4617L150.72 41.497L150.871 42.7095H150.201L148.965 38.6791L148.761 37.4617H149.522ZM154.634 37.4617V42.7095H153.461V37.4617H154.634ZM153.383 36.0843C153.383 35.9064 153.441 35.7593 153.558 35.6429C153.677 35.5233 153.842 35.4635 154.052 35.4635C154.259 35.4635 154.423 35.5233 154.542 35.6429C154.662 35.7593 154.722 35.9064 154.722 36.0843C154.722 36.2589 154.662 36.4044 154.542 36.5208C154.423 36.6372 154.259 36.6954 154.052 36.6954C153.842 36.6954 153.677 36.6372 153.558 36.5208C153.441 36.4044 153.383 36.2589 153.383 36.0843ZM158.32 37.4617V38.3153H155.362V37.4617H158.32ZM156.216 36.1764H157.384V41.2593C157.384 41.421 157.407 41.5455 157.452 41.6328C157.501 41.7168 157.567 41.7734 157.651 41.8025C157.735 41.8316 157.834 41.8462 157.947 41.8462C158.028 41.8462 158.105 41.8413 158.18 41.8316C158.254 41.8219 158.314 41.8122 158.359 41.8025L158.364 42.6949C158.267 42.724 158.154 42.7499 158.025 42.7725C157.899 42.7952 157.753 42.8065 157.588 42.8065C157.32 42.8065 157.082 42.7596 156.875 42.6658C156.668 42.5688 156.507 42.412 156.39 42.1954C156.274 41.9787 156.216 41.691 156.216 41.3321V36.1764ZM160.377 35.2598V42.7095H159.213V35.2598H160.377ZM160.173 39.8916L159.795 39.8867C159.798 39.5246 159.848 39.1899 159.945 38.8828C160.045 38.5756 160.185 38.3088 160.362 38.0825C160.543 37.8529 160.76 37.6767 161.012 37.5538C161.264 37.4277 161.544 37.3647 161.851 37.3647C162.11 37.3647 162.343 37.4003 162.55 37.4714C162.76 37.5425 162.941 37.6573 163.093 37.8157C163.245 37.971 163.36 38.1747 163.437 38.4269C163.518 38.6758 163.559 38.9798 163.559 39.3387V42.7095H162.385V39.329C162.385 39.0768 162.348 38.8763 162.273 38.7276C162.202 38.5788 162.097 38.4721 161.958 38.4075C161.819 38.3396 161.649 38.3056 161.449 38.3056C161.239 38.3056 161.053 38.3476 160.891 38.4317C160.733 38.5158 160.6 38.6306 160.493 38.7761C160.387 38.9216 160.306 39.0897 160.251 39.2805C160.199 39.4712 160.173 39.6749 160.173 39.8916ZM172.754 39.101V41.7977C172.654 41.9302 172.497 42.0757 172.284 42.2342C172.074 42.3894 171.794 42.5236 171.445 42.6367C171.096 42.7499 170.661 42.8065 170.14 42.8065C169.697 42.8065 169.291 42.7321 168.923 42.5834C168.554 42.4314 168.236 42.2099 167.967 41.9189C167.702 41.6279 167.497 41.2739 167.351 40.8567C167.206 40.4364 167.133 39.9579 167.133 39.4211V38.9313C167.133 38.3978 167.199 37.9225 167.332 37.5053C167.468 37.085 167.662 36.7293 167.914 36.4383C168.166 36.1473 168.47 35.9275 168.826 35.7787C169.185 35.6267 169.59 35.5508 170.043 35.5508C170.622 35.5508 171.1 35.6478 171.479 35.8418C171.86 36.0325 172.154 36.2977 172.361 36.6372C172.568 36.9767 172.699 37.3647 172.754 37.8012H171.561C171.522 37.5555 171.446 37.3356 171.333 37.1416C171.223 36.9476 171.065 36.7956 170.858 36.6857C170.654 36.5725 170.389 36.5159 170.062 36.5159C169.781 36.5159 169.534 36.5693 169.32 36.676C169.107 36.7827 168.929 36.9395 168.787 37.1464C168.648 37.3534 168.543 37.6056 168.472 37.9031C168.401 38.2005 168.365 38.54 168.365 38.9216V39.4211C168.365 39.8091 168.405 40.1535 168.486 40.4542C168.57 40.7549 168.69 41.0087 168.845 41.2157C169.004 41.4226 169.196 41.5794 169.422 41.6861C169.649 41.7896 169.904 41.8413 170.189 41.8413C170.467 41.8413 170.695 41.8187 170.872 41.7734C171.05 41.7249 171.191 41.6683 171.294 41.6037C171.401 41.5358 171.484 41.4711 171.542 41.4097V40.008H170.072V39.101H172.754ZM173.763 40.1438V40.0322C173.763 39.6539 173.818 39.3031 173.928 38.9798C174.038 38.6532 174.196 38.3703 174.403 38.131C174.613 37.8885 174.869 37.701 175.17 37.5684C175.474 37.4326 175.816 37.3647 176.198 37.3647C176.583 37.3647 176.925 37.4326 177.226 37.5684C177.53 37.701 177.787 37.8885 177.997 38.131C178.207 38.3703 178.367 38.6532 178.477 38.9798C178.587 39.3031 178.642 39.6539 178.642 40.0322V40.1438C178.642 40.5221 178.587 40.8729 178.477 41.1962C178.367 41.5196 178.207 41.8025 177.997 42.045C177.787 42.2843 177.532 42.4718 177.231 42.6076C176.93 42.7402 176.589 42.8065 176.208 42.8065C175.823 42.8065 175.478 42.7402 175.174 42.6076C174.874 42.4718 174.618 42.2843 174.408 42.045C174.198 41.8025 174.038 41.5196 173.928 41.1962C173.818 40.8729 173.763 40.5221 173.763 40.1438ZM174.932 40.0322V40.1438C174.932 40.3798 174.956 40.6029 175.005 40.8131C175.053 41.0233 175.129 41.2076 175.233 41.366C175.336 41.5244 175.469 41.6489 175.63 41.7395C175.792 41.83 175.984 41.8753 176.208 41.8753C176.424 41.8753 176.612 41.83 176.77 41.7395C176.932 41.6489 177.064 41.5244 177.168 41.366C177.271 41.2076 177.347 41.0233 177.396 40.8131C177.448 40.6029 177.473 40.3798 177.473 40.1438V40.0322C177.473 39.7994 177.448 39.5796 177.396 39.3726C177.347 39.1625 177.27 38.9765 177.163 38.8149C177.06 38.6532 176.927 38.5271 176.765 38.4366C176.607 38.3428 176.418 38.2959 176.198 38.2959C175.978 38.2959 175.787 38.3428 175.626 38.4366C175.467 38.5271 175.336 38.6532 175.233 38.8149C175.129 38.9765 175.053 39.1625 175.005 39.3726C174.956 39.5796 174.932 39.7994 174.932 40.0322ZM179.399 40.1438V40.0322C179.399 39.6539 179.454 39.3031 179.564 38.9798C179.674 38.6532 179.832 38.3703 180.039 38.131C180.249 37.8885 180.505 37.701 180.805 37.5684C181.109 37.4326 181.452 37.3647 181.834 37.3647C182.218 37.3647 182.561 37.4326 182.862 37.5684C183.166 37.701 183.423 37.8885 183.633 38.131C183.843 38.3703 184.003 38.6532 184.113 38.9798C184.223 39.3031 184.278 39.6539 184.278 40.0322V40.1438C184.278 40.5221 184.223 40.8729 184.113 41.1962C184.003 41.5196 183.843 41.8025 183.633 42.045C183.423 42.2843 183.167 42.4718 182.867 42.6076C182.566 42.7402 182.225 42.8065 181.843 42.8065C181.459 42.8065 181.114 42.7402 180.81 42.6076C180.51 42.4718 180.254 42.2843 180.044 42.045C179.834 41.8025 179.674 41.5196 179.564 41.1962C179.454 40.8729 179.399 40.5221 179.399 40.1438ZM180.568 40.0322V40.1438C180.568 40.3798 180.592 40.6029 180.641 40.8131C180.689 41.0233 180.765 41.2076 180.868 41.366C180.972 41.5244 181.104 41.6489 181.266 41.7395C181.428 41.83 181.62 41.8753 181.843 41.8753C182.06 41.8753 182.247 41.83 182.406 41.7395C182.568 41.6489 182.7 41.5244 182.804 41.366C182.907 41.2076 182.983 41.0233 183.032 40.8131C183.083 40.6029 183.109 40.3798 183.109 40.1438V40.0322C183.109 39.7994 183.083 39.5796 183.032 39.3726C182.983 39.1625 182.905 38.9765 182.799 38.8149C182.695 38.6532 182.563 38.5271 182.401 38.4366C182.243 38.3428 182.053 38.2959 181.834 38.2959C181.614 38.2959 181.423 38.3428 181.261 38.4366C181.103 38.5271 180.972 38.6532 180.868 38.8149C180.765 38.9765 180.689 39.1625 180.641 39.3726C180.592 39.5796 180.568 39.7994 180.568 40.0322ZM188.619 37.4617H189.681V42.564C189.681 43.036 189.581 43.437 189.38 43.7668C189.18 44.0966 188.9 44.3472 188.541 44.5185C188.182 44.6932 187.767 44.7805 187.295 44.7805C187.094 44.7805 186.871 44.7514 186.625 44.6932C186.383 44.635 186.147 44.5412 185.917 44.4118C185.691 44.2857 185.502 44.1192 185.35 43.9123L185.898 43.2236C186.086 43.4467 186.292 43.61 186.519 43.7134C186.745 43.8169 186.983 43.8686 187.232 43.8686C187.5 43.8686 187.728 43.8185 187.916 43.7183C188.106 43.6213 188.254 43.4774 188.357 43.2866C188.46 43.0959 188.512 42.8631 188.512 42.5882V38.65L188.619 37.4617ZM185.054 40.1438V40.0419C185.054 39.6442 185.103 39.2821 185.2 38.9555C185.297 38.6257 185.436 38.3428 185.617 38.1068C185.798 37.8675 186.018 37.6848 186.276 37.5587C186.535 37.4294 186.828 37.3647 187.154 37.3647C187.494 37.3647 187.783 37.4261 188.022 37.549C188.265 37.6719 188.467 37.8481 188.629 38.0777C188.79 38.304 188.916 38.5756 189.007 38.8925C189.101 39.2061 189.17 39.5553 189.215 39.9401V40.265C189.173 40.6401 189.102 40.9828 189.002 41.2933C188.902 41.6037 188.769 41.872 188.604 42.0984C188.439 42.3247 188.236 42.4993 187.993 42.6222C187.754 42.745 187.471 42.8065 187.144 42.8065C186.824 42.8065 186.535 42.7402 186.276 42.6076C186.021 42.4751 185.801 42.2891 185.617 42.0499C185.436 41.8106 185.297 41.5293 185.2 41.2059C185.103 40.8794 185.054 40.5253 185.054 40.1438ZM186.223 40.0419V40.1438C186.223 40.3831 186.246 40.6062 186.291 40.8131C186.339 41.02 186.412 41.2027 186.509 41.3612C186.609 41.5164 186.735 41.6392 186.887 41.7298C187.043 41.8171 187.225 41.8607 187.435 41.8607C187.71 41.8607 187.935 41.8025 188.11 41.6861C188.287 41.5697 188.423 41.4129 188.517 41.2157C188.614 41.0152 188.682 40.7921 188.721 40.5463V39.6685C188.701 39.4777 188.661 39.2999 188.599 39.135C188.541 38.9701 188.462 38.8262 188.362 38.7033C188.262 38.5772 188.135 38.4802 187.984 38.4123C187.832 38.3412 187.652 38.3056 187.445 38.3056C187.235 38.3056 187.052 38.3509 186.897 38.4414C186.742 38.5319 186.614 38.6564 186.514 38.8149C186.417 38.9733 186.344 39.1576 186.296 39.3678C186.247 39.5779 186.223 39.8027 186.223 40.0419ZM192.145 35.2598V42.7095H190.971V35.2598H192.145ZM195.739 42.8065C195.351 42.8065 195 42.7434 194.686 42.6173C194.376 42.488 194.111 42.3085 193.891 42.079C193.674 41.8494 193.508 41.5794 193.391 41.269C193.275 40.9586 193.217 40.6239 193.217 40.265V40.071C193.217 39.6604 193.277 39.2886 193.396 38.9555C193.516 38.6225 193.682 38.3379 193.896 38.1019C194.109 37.8626 194.361 37.6799 194.652 37.5538C194.943 37.4277 195.259 37.3647 195.598 37.3647C195.973 37.3647 196.301 37.4277 196.583 37.5538C196.864 37.6799 197.097 37.8578 197.281 38.0874C197.469 38.3137 197.608 38.5837 197.698 38.8973C197.792 39.211 197.839 39.5569 197.839 39.9352V40.4348H193.784V39.5957H196.685V39.5036C196.678 39.2934 196.636 39.0962 196.558 38.9119C196.484 38.7276 196.369 38.5788 196.214 38.4657C196.059 38.3525 195.852 38.2959 195.593 38.2959C195.399 38.2959 195.226 38.3379 195.074 38.422C194.926 38.5028 194.801 38.6209 194.701 38.7761C194.601 38.9313 194.523 39.1188 194.468 39.3387C194.416 39.5553 194.39 39.7994 194.39 40.071V40.265C194.39 40.4946 194.421 40.708 194.483 40.9052C194.547 41.0992 194.641 41.269 194.764 41.4145C194.887 41.56 195.036 41.6748 195.21 41.7589C195.385 41.8397 195.584 41.8801 195.807 41.8801C196.088 41.8801 196.339 41.8235 196.558 41.7104C196.778 41.5972 196.969 41.4371 197.131 41.2302L197.747 41.8268C197.634 41.9917 197.486 42.1501 197.305 42.3021C197.124 42.4508 196.903 42.5721 196.641 42.6658C196.382 42.7596 196.082 42.8065 195.739 42.8065Z" fill="black" fill-opacity="0.54"/>
</g>
<defs>
<filter id="filter0_d_268_12477" x="-1.14441e-05" y="4.95911e-05" width="294.6" height="78.6" filterUnits="userSpaceOnUse" color-interpolation-filters="sRGB">
<feFlood flood-opacity="0" result="BackgroundImageFix"/>
<feColorMatrix in="SourceAlpha" type="matrix" values="0 0 0 0 0 0 0 0 0 0 0 0 0 0 0 0 0 0 127 0" result="hardAlpha"/>
<feOffset/>
<feGaussianBlur stdDeviation="8.15"/>
<feColorMatrix type="matrix" values="0 0 0 0 0.213058 0 0 0 0 0.0723743 0 0 0 0 0.0723743 0 0 0 0.78 0"/>
<feBlend mode="normal" in2="BackgroundImageFix" result="effect1_dropShadow_268_12477"/>
<feBlend mode="normal" in="SourceGraphic" in2="effect1_dropShadow_268_12477" result="shape"/>
</filter>
</defs>
</svg>
