<svg width="393" height="368" viewBox="0 0 393 368" fill="none" xmlns="http://www.w3.org/2000/svg">
<g filter="url(#filter0_d_268_12457)">
<rect x="140.795" y="158.591" width="163.896" height="106.663" rx="6.32146" transform="rotate(28.4623 140.795 158.591)" fill="#447358"/>
</g>
<g filter="url(#filter1_d_268_12457)">
<path d="M182.538 246.513C184.14 248.917 186.831 250.369 189.719 250.386L270.09 250.877C279.145 250.932 282.239 238.833 274.269 234.535L149.345 167.152C141.375 162.853 132.964 172.084 137.984 179.621L182.538 246.513Z" fill="#447358"/>
</g>
<g filter="url(#filter2_d_268_12457)">
<rect x="56.6153" y="103.531" width="163.896" height="106.663" rx="6.32146" transform="rotate(12.1064 56.6153 103.531)" fill="#702A2A"/>
</g>
<g filter="url(#filter3_d_268_12457)">
<path d="M121.428 176.139C123.642 177.995 126.633 178.63 129.409 177.834L206.665 155.672C215.369 153.175 214.931 140.695 206.074 138.814L67.2299 109.338C58.3721 107.457 52.9013 118.683 59.8402 124.501L121.428 176.139Z" fill="#702A2A"/>
</g>
<g filter="url(#filter4_d_268_12457)">
<rect x="174.886" y="73.6936" width="207.415" height="134.985" rx="8" transform="rotate(18.8186 174.886 73.6936)" fill="#8F7B50"/>
</g>
<g filter="url(#filter5_d_268_12457)">
<path d="M245.606 174.538C248.114 177.198 251.779 178.438 255.387 177.848L355.765 161.421C367.074 159.57 368.369 143.82 357.514 140.146L187.368 82.561C176.513 78.8872 167.977 92.187 175.837 100.526L245.606 174.538Z" fill="#8F7B50"/>
</g>
<g clip-path="url(#clip0_268_12457)" filter="url(#filter6_g_268_12457)">
<path d="M238.945 176.74L243.664 185.177C243.859 185.527 244.185 185.798 244.575 185.936C244.965 186.074 245.39 186.067 245.762 185.917L254.731 182.313C256.239 181.709 257.391 180.523 257.914 179.041L257.987 178.834C258.868 176.34 257.706 173.537 255.241 172.206C253.61 171.325 251.665 171.236 250.019 171.964L249.414 172.231L249.111 171.643C248.287 170.043 246.717 168.891 244.894 168.553C242.14 168.042 239.476 169.494 238.595 171.988L238.522 172.195C237.999 173.676 238.151 175.323 238.945 176.74Z" fill="#FFFCED"/>
</g>
<g filter="url(#filter7_d_268_12457)">
<rect x="83.6402" y="100.851" width="207.415" height="134.985" rx="8" transform="rotate(3.20935 83.6402 100.851)" fill="#B4A37B"/>
</g>
<g filter="url(#filter8_d_268_12457)">
<path d="M178.887 178.947C182.018 180.834 185.882 181.043 189.198 179.503L281.453 136.673C291.847 131.848 288.857 116.33 277.414 115.712L98.0479 106.033C86.6049 105.415 81.9619 120.522 91.7764 126.438L178.887 178.947Z" fill="#B4A37B"/>
</g>
<g clip-path="url(#clip1_268_12457)" filter="url(#filter9_g_268_12457)">
<path d="M173.064 182.86L179.879 189.716C180.161 190.001 180.548 190.175 180.961 190.202C181.374 190.23 181.781 190.109 182.099 189.865L189.768 183.98C191.058 182.993 191.847 181.54 191.952 179.973L191.967 179.754C192.144 177.114 190.271 174.728 187.539 174.109C185.731 173.699 183.834 174.137 182.445 175.28L181.934 175.701L181.483 175.216C180.259 173.897 178.437 173.21 176.591 173.374C173.801 173.623 171.626 175.738 171.449 178.378L171.434 178.597C171.329 180.164 171.918 181.71 173.064 182.86Z" fill="#716942"/>
</g>
<g filter="url(#filter10_d_268_12457)">
<rect x="57.1732" y="163.91" width="207.415" height="134.985" rx="8" transform="rotate(-12.6665 57.1732 163.91)" fill="#A42323"/>
</g>
<g filter="url(#filter11_d_268_12457)">
<path d="M170.15 212.972C173.678 213.931 177.452 213.074 180.22 210.686L257.24 144.253C265.918 136.768 258.797 122.66 247.621 125.196L72.4489 164.953C61.2734 167.489 60.9399 183.289 71.9984 186.295L170.15 212.972Z" fill="#A42323"/>
</g>
<defs>
<filter id="filter0_d_268_12457" x="86.9939" y="158.784" width="200.855" height="177.816" filterUnits="userSpaceOnUse" color-interpolation-filters="sRGB">
<feFlood flood-opacity="0" result="BackgroundImageFix"/>
<feColorMatrix in="SourceAlpha" type="matrix" values="0 0 0 0 0 0 0 0 0 0 0 0 0 0 0 0 0 0 127 0" result="hardAlpha"/>
<feOffset dy="3.16073"/>
<feGaussianBlur stdDeviation="2.6076"/>
<feComposite in2="hardAlpha" operator="out"/>
<feColorMatrix type="matrix" values="0 0 0 0 0.0533082 0 0 0 0 0.170322 0 0 0 0 0.116691 0 0 0 1 0"/>
<feBlend mode="normal" in2="BackgroundImageFix" result="effect1_dropShadow_268_12457"/>
<feBlend mode="normal" in="SourceGraphic" in2="effect1_dropShadow_268_12457" result="shape"/>
</filter>
<filter id="filter1_d_268_12457" x="133.309" y="166.057" width="148.7" height="91.1413" filterUnits="userSpaceOnUse" color-interpolation-filters="sRGB">
<feFlood flood-opacity="0" result="BackgroundImageFix"/>
<feColorMatrix in="SourceAlpha" type="matrix" values="0 0 0 0 0 0 0 0 0 0 0 0 0 0 0 0 0 0 127 0" result="hardAlpha"/>
<feOffset dy="3.16073"/>
<feGaussianBlur stdDeviation="1.58036"/>
<feComposite in2="hardAlpha" operator="out"/>
<feColorMatrix type="matrix" values="0 0 0 0 0.269231 0 0 0 0 0.0660133 0 0 0 0 0.0660133 0 0 0 0.25 0"/>
<feBlend mode="normal" in2="BackgroundImageFix" result="effect1_dropShadow_268_12457"/>
<feBlend mode="normal" in="SourceGraphic" in2="effect1_dropShadow_268_12457" result="shape"/>
</filter>
<filter id="filter2_d_268_12457" x="30.2138" y="102.66" width="190.684" height="146.727" filterUnits="userSpaceOnUse" color-interpolation-filters="sRGB">
<feFlood flood-opacity="0" result="BackgroundImageFix"/>
<feColorMatrix in="SourceAlpha" type="matrix" values="0 0 0 0 0 0 0 0 0 0 0 0 0 0 0 0 0 0 127 0" result="hardAlpha"/>
<feOffset dy="3.16073"/>
<feGaussianBlur stdDeviation="2.6076"/>
<feComposite in2="hardAlpha" operator="out"/>
<feColorMatrix type="matrix" values="0 0 0 0 0.0533082 0 0 0 0 0.170322 0 0 0 0 0.116691 0 0 0 1 0"/>
<feBlend mode="normal" in2="BackgroundImageFix" result="effect1_dropShadow_268_12457"/>
<feBlend mode="normal" in="SourceGraphic" in2="effect1_dropShadow_268_12457" result="shape"/>
</filter>
<filter id="filter3_d_268_12457" x="53.5342" y="109.128" width="162.587" height="75.3644" filterUnits="userSpaceOnUse" color-interpolation-filters="sRGB">
<feFlood flood-opacity="0" result="BackgroundImageFix"/>
<feColorMatrix in="SourceAlpha" type="matrix" values="0 0 0 0 0 0 0 0 0 0 0 0 0 0 0 0 0 0 127 0" result="hardAlpha"/>
<feOffset dy="3.16073"/>
<feGaussianBlur stdDeviation="1.58036"/>
<feComposite in2="hardAlpha" operator="out"/>
<feColorMatrix type="matrix" values="0 0 0 0 0.269231 0 0 0 0 0.0660133 0 0 0 0 0.0660133 0 0 0 0.25 0"/>
<feBlend mode="normal" in2="BackgroundImageFix" result="effect1_dropShadow_268_12457"/>
<feBlend mode="normal" in="SourceGraphic" in2="effect1_dropShadow_268_12457" result="shape"/>
</filter>
<filter id="filter4_d_268_12457" x="126.894" y="73.2445" width="248.769" height="203.574" filterUnits="userSpaceOnUse" color-interpolation-filters="sRGB">
<feFlood flood-opacity="0" result="BackgroundImageFix"/>
<feColorMatrix in="SourceAlpha" type="matrix" values="0 0 0 0 0 0 0 0 0 0 0 0 0 0 0 0 0 0 127 0" result="hardAlpha"/>
<feOffset dy="4"/>
<feGaussianBlur stdDeviation="3.3"/>
<feComposite in2="hardAlpha" operator="out"/>
<feColorMatrix type="matrix" values="0 0 0 0 0.00485755 0 0 0 0 0.0421172 0 0 0 0 0.0250398 0 0 0 1 0"/>
<feBlend mode="normal" in2="BackgroundImageFix" result="effect1_dropShadow_268_12457"/>
<feBlend mode="normal" in="SourceGraphic" in2="effect1_dropShadow_268_12457" result="shape"/>
</filter>
<filter id="filter5_d_268_12457" x="168.779" y="81.9333" width="200.211" height="104.059" filterUnits="userSpaceOnUse" color-interpolation-filters="sRGB">
<feFlood flood-opacity="0" result="BackgroundImageFix"/>
<feColorMatrix in="SourceAlpha" type="matrix" values="0 0 0 0 0 0 0 0 0 0 0 0 0 0 0 0 0 0 127 0" result="hardAlpha"/>
<feOffset dy="4"/>
<feGaussianBlur stdDeviation="2"/>
<feComposite in2="hardAlpha" operator="out"/>
<feColorMatrix type="matrix" values="0 0 0 0 0.269231 0 0 0 0 0.0660133 0 0 0 0 0.0660133 0 0 0 0.25 0"/>
<feBlend mode="normal" in2="BackgroundImageFix" result="effect1_dropShadow_268_12457"/>
<feBlend mode="normal" in="SourceGraphic" in2="effect1_dropShadow_268_12457" result="shape"/>
</filter>
<filter id="filter6_g_268_12457" x="233.314" y="164.491" width="27.8377" height="27.8378" filterUnits="userSpaceOnUse" color-interpolation-filters="sRGB">
<feFlood flood-opacity="0" result="BackgroundImageFix"/>
<feBlend mode="normal" in="SourceGraphic" in2="BackgroundImageFix" result="shape"/>
<feTurbulence type="fractalNoise" baseFrequency="0.38461539149284363 0.38461539149284363" numOctaves="3" seed="5230" />
<feDisplacementMap in="shape" scale="1.6000000238418579" xChannelSelector="R" yChannelSelector="G" result="displacedImage" width="100%" height="100%" />
<feMerge result="effect1_texture_268_12457">
<feMergeNode in="displacedImage"/>
</feMerge>
</filter>
<filter id="filter7_d_268_12457" x="69.9182" y="98.6861" width="226.977" height="158.715" filterUnits="userSpaceOnUse" color-interpolation-filters="sRGB">
<feFlood flood-opacity="0" result="BackgroundImageFix"/>
<feColorMatrix in="SourceAlpha" type="matrix" values="0 0 0 0 0 0 0 0 0 0 0 0 0 0 0 0 0 0 127 0" result="hardAlpha"/>
<feOffset dy="4"/>
<feGaussianBlur stdDeviation="3.3"/>
<feComposite in2="hardAlpha" operator="out"/>
<feColorMatrix type="matrix" values="0 0 0 0 0.202374 0 0 0 0 0.169507 0 0 0 0 0.0968526 0 0 0 1 0"/>
<feBlend mode="normal" in2="BackgroundImageFix" result="effect1_dropShadow_268_12457"/>
<feBlend mode="normal" in="SourceGraphic" in2="effect1_dropShadow_268_12457" result="shape"/>
</filter>
<filter id="filter8_d_268_12457" x="82.4304" y="106.014" width="209.402" height="82.512" filterUnits="userSpaceOnUse" color-interpolation-filters="sRGB">
<feFlood flood-opacity="0" result="BackgroundImageFix"/>
<feColorMatrix in="SourceAlpha" type="matrix" values="0 0 0 0 0 0 0 0 0 0 0 0 0 0 0 0 0 0 127 0" result="hardAlpha"/>
<feOffset dy="4"/>
<feGaussianBlur stdDeviation="2"/>
<feComposite in2="hardAlpha" operator="out"/>
<feColorMatrix type="matrix" values="0 0 0 0 0.269231 0 0 0 0 0.0660133 0 0 0 0 0.0660133 0 0 0 0.25 0"/>
<feBlend mode="normal" in2="BackgroundImageFix" result="effect1_dropShadow_268_12457"/>
<feBlend mode="normal" in="SourceGraphic" in2="effect1_dropShadow_268_12457" result="shape"/>
</filter>
<filter id="filter9_g_268_12457" x="169.748" y="170.491" width="23.4945" height="23.4945" filterUnits="userSpaceOnUse" color-interpolation-filters="sRGB">
<feFlood flood-opacity="0" result="BackgroundImageFix"/>
<feBlend mode="normal" in="SourceGraphic" in2="BackgroundImageFix" result="shape"/>
<feTurbulence type="fractalNoise" baseFrequency="0.38461539149284363 0.38461539149284363" numOctaves="3" seed="5230" />
<feDisplacementMap in="shape" scale="1.6000000238418579" xChannelSelector="R" yChannelSelector="G" result="displacedImage" width="100%" height="100%" />
<feMerge result="effect1_texture_268_12457">
<feMergeNode in="displacedImage"/>
</feMerge>
</filter>
<filter id="filter10_d_268_12457" x="52.131" y="117.386" width="242.051" height="187.266" filterUnits="userSpaceOnUse" color-interpolation-filters="sRGB">
<feFlood flood-opacity="0" result="BackgroundImageFix"/>
<feColorMatrix in="SourceAlpha" type="matrix" values="0 0 0 0 0 0 0 0 0 0 0 0 0 0 0 0 0 0 127 0" result="hardAlpha"/>
<feOffset dy="4"/>
<feGaussianBlur stdDeviation="3.3"/>
<feComposite in2="hardAlpha" operator="out"/>
<feColorMatrix type="matrix" values="0 0 0 0 0.143613 0 0 0 0 0.0219337 0 0 0 0 0.0219337 0 0 0 1 0"/>
<feBlend mode="normal" in2="BackgroundImageFix" result="effect1_dropShadow_268_12457"/>
<feBlend mode="normal" in="SourceGraphic" in2="effect1_dropShadow_268_12457" result="shape"/>
</filter>
<filter id="filter11_d_268_12457" x="59.8833" y="124.895" width="205.222" height="96.4619" filterUnits="userSpaceOnUse" color-interpolation-filters="sRGB">
<feFlood flood-opacity="0" result="BackgroundImageFix"/>
<feColorMatrix in="SourceAlpha" type="matrix" values="0 0 0 0 0 0 0 0 0 0 0 0 0 0 0 0 0 0 127 0" result="hardAlpha"/>
<feOffset dy="4"/>
<feGaussianBlur stdDeviation="2"/>
<feComposite in2="hardAlpha" operator="out"/>
<feColorMatrix type="matrix" values="0 0 0 0 0.269231 0 0 0 0 0.0660133 0 0 0 0 0.0660133 0 0 0 0.25 0"/>
<feBlend mode="normal" in2="BackgroundImageFix" result="effect1_dropShadow_268_12457"/>
<feBlend mode="normal" in="SourceGraphic" in2="effect1_dropShadow_268_12457" result="shape"/>
</filter>
<clipPath id="clip0_268_12457">
<rect width="20.5645" height="20.5645" fill="white" transform="translate(240.96 165.291) rotate(19.446)"/>
</clipPath>
<clipPath id="clip1_268_12457">
<rect width="20.5645" height="20.5645" fill="white" transform="translate(171.924 171.291) rotate(3.83683)"/>
</clipPath>
</defs>
</svg>
