<svg width="24" height="24" viewBox="0 0 24 24" fill="none" xmlns="http://www.w3.org/2000/svg">
<path d="M22.3893 0.45791C23.0402 0.943385 23.4108 1.54191 23.6014 2.32192C23.7166 3.49636 23.2295 4.58584 22.8639 5.68339C22.7921 5.89914 22.7206 6.11498 22.649 6.3308C22.493 6.8012 22.3366 7.27147 22.1801 7.74171C22.0823 8.03577 21.9845 8.32986 21.8867 8.62395C21.6155 9.43968 21.3442 10.2554 21.0726 11.0709C21.0552 11.123 21.0379 11.175 21.02 11.2286C20.994 11.3069 20.994 11.3069 20.9674 11.3867C20.9322 11.4924 20.897 11.598 20.8618 11.7037C20.8443 11.7561 20.8269 11.8085 20.8089 11.8625C20.5258 12.7126 20.2433 13.5629 19.9612 14.4134C19.671 15.2884 19.3801 16.1632 19.0886 17.0378C18.9252 17.5282 18.7621 18.0186 18.5996 18.5092C18.4613 18.9267 18.3225 19.344 18.183 19.761C18.112 19.9735 18.0412 20.1861 17.9711 20.3989C17.8948 20.6302 17.8174 20.8611 17.7398 21.092C17.7182 21.1584 17.6965 21.2248 17.6742 21.2933C17.3835 22.1493 16.9537 22.8466 16.1523 23.2948C15.4007 23.6626 14.5667 23.6815 13.776 23.4267C12.9699 23.0896 12.4221 22.507 12.083 21.7098C11.9572 21.4016 11.8396 21.0902 11.7216 20.779C11.6764 20.6614 11.6311 20.5438 11.5857 20.4263C11.4884 20.174 11.3913 19.9216 11.2944 19.6691C11.0502 19.0339 10.801 18.4006 10.552 17.7672C10.446 17.4975 10.3403 17.2276 10.2349 16.9576C10.1838 16.8281 10.1321 16.699 10.0796 16.5701C9.94417 16.2361 9.82343 15.9043 9.72051 15.5588C9.47517 14.7546 9.47517 14.7546 8.89735 14.1778C8.51944 13.9867 8.1221 13.8625 7.71888 13.7367C7.57306 13.6862 7.42747 13.6351 7.28209 13.5833C7.01928 13.4901 6.75596 13.3987 6.49167 13.3097C5.79914 13.076 5.12256 12.8045 4.44488 12.5309C4.19287 12.4294 3.94024 12.3296 3.68758 12.2297C3.39777 12.1151 3.10834 11.9995 2.81898 11.8837C2.75917 11.8598 2.69936 11.8359 2.63774 11.8113C2.46058 11.7403 2.28361 11.6689 2.1067 11.5974C2.05359 11.5761 2.00049 11.5549 1.94577 11.533C1.16863 11.2169 0.593629 10.7387 0.238565 9.96658C-0.0541337 9.27172 -0.0786008 8.53456 0.171274 7.82218C0.531444 6.95927 1.09701 6.46225 1.94007 6.08291C2.19122 5.98465 2.4456 5.89877 2.70176 5.81453C2.77596 5.7897 2.85015 5.76483 2.92432 5.73991C3.12598 5.67232 3.32786 5.60537 3.52978 5.53855C3.74835 5.46608 3.96671 5.393 4.1851 5.32C4.61202 5.1774 5.03912 5.03536 5.46629 4.89351C5.9642 4.72815 6.46192 4.56224 6.95964 4.3963C7.8478 4.10022 8.73612 3.80465 9.62454 3.50936C10.4859 3.22307 11.3471 2.93641 12.2082 2.64934C12.2613 2.63165 12.3144 2.61395 12.369 2.59572C12.422 2.57806 12.475 2.5604 12.5296 2.5422C13.5113 2.21493 14.493 1.88802 15.4749 1.56126C15.8216 1.44586 16.1683 1.33036 16.515 1.21483C16.9375 1.07404 17.36 0.933445 17.7827 0.793101C17.9982 0.721539 18.2136 0.649896 18.429 0.578024C18.6627 0.500051 18.8966 0.422489 19.1304 0.344967C19.232 0.310957 19.232 0.310957 19.3357 0.27626C20.3924 -0.0727988 21.408 -0.170091 22.3893 0.45791ZM19.5804 2.23878C19.4903 2.26834 19.4903 2.26834 19.3984 2.29849C19.3322 2.3208 19.266 2.34312 19.1978 2.36611C19.1276 2.3893 19.0575 2.41249 18.9852 2.43638C18.7899 2.50095 18.5949 2.56617 18.3998 2.63149C18.1897 2.70178 17.9793 2.77145 17.7689 2.84121C17.3566 2.97806 16.9444 3.11549 16.5324 3.25312C16.1973 3.36501 15.8622 3.47669 15.5271 3.58824C15.4795 3.6041 15.4318 3.61996 15.3827 3.6363C15.2859 3.66852 15.1891 3.70073 15.0923 3.73295C14.1836 4.0354 13.2752 4.33852 12.3668 4.64185C11.5877 4.902 10.8084 5.16155 10.0289 5.42067C9.12399 5.72148 8.21922 6.02269 7.31466 6.32453C7.21813 6.35674 7.12159 6.38895 7.02506 6.42116C6.97756 6.43701 6.93006 6.45286 6.88112 6.46919C6.54672 6.58073 6.21222 6.69198 5.87768 6.80312C5.46958 6.9387 5.06164 7.07471 4.65387 7.21129C4.44589 7.28093 4.23785 7.35038 4.02962 7.4193C3.80364 7.4941 3.578 7.56985 3.35237 7.64569C3.28683 7.66722 3.22129 7.68875 3.15376 7.71094C2.49391 7.93067 2.49391 7.93067 2.0243 8.41567C1.91817 8.66615 1.91623 8.87178 1.99867 9.12978C2.26466 9.66177 2.85414 9.80938 3.37539 10.0137C3.44867 10.0427 3.52194 10.0717 3.59521 10.1008C3.79225 10.1788 3.98945 10.2564 4.18669 10.3339C4.39257 10.4149 4.59835 10.4961 4.80414 10.5773C5.05842 10.6776 5.31272 10.7779 5.56708 10.8779C6.06707 11.0747 6.56653 11.2727 7.06546 11.4721C7.33214 11.5787 7.59899 11.6848 7.86589 11.7908C8.04618 11.8625 8.22635 11.9344 8.40637 12.0067C8.60567 12.0867 8.80527 12.1659 9.00497 12.2449C9.06382 12.2687 9.12267 12.2926 9.1833 12.3171C9.23719 12.3383 9.29109 12.3594 9.34662 12.3812C9.39325 12.3998 9.43989 12.4184 9.48794 12.4376C9.63815 12.4752 9.70489 12.4611 9.85023 12.411C9.94818 12.339 9.94818 12.339 10.0383 12.2446C10.0743 12.209 10.1103 12.1733 10.1473 12.1366C10.1863 12.0971 10.2253 12.0576 10.2655 12.0169C10.3073 11.9753 10.3491 11.9336 10.3922 11.8906C10.5328 11.7503 10.6728 11.6094 10.8127 11.4685C10.9132 11.368 11.0137 11.2675 11.1142 11.1671C11.3308 10.9506 11.5471 10.7338 11.7631 10.5167C12.0755 10.2029 12.3884 9.88954 12.7014 9.57631C13.2092 9.06812 13.7167 8.55954 14.2238 8.05071C14.7165 7.5564 15.2094 7.06228 15.7025 6.56841C15.7329 6.53797 15.7633 6.50753 15.7946 6.47617C15.9471 6.32348 16.0995 6.17079 16.252 6.0181C17.5171 4.7512 18.7815 3.48366 20.0455 2.21572C19.838 2.14653 19.7837 2.17114 19.5804 2.23878ZM21.3932 3.62197C18.0094 7.00576 14.6256 10.3896 11.1393 13.8759C11.4285 14.6479 11.4285 14.6479 11.7234 15.4176C11.7441 15.4712 11.7648 15.5247 11.7862 15.5799C12.0038 16.1416 12.2222 16.7031 12.4408 17.2644C12.5531 17.5531 12.6652 17.8419 12.7771 18.1308C12.9083 18.4694 13.0398 18.8078 13.1717 19.146C13.2426 19.3279 13.3133 19.5098 13.3837 19.6918C13.4626 19.8958 13.5421 20.0995 13.6217 20.3031C13.6565 20.3935 13.6565 20.3935 13.6919 20.4857C13.9203 21.0756 13.9203 21.0756 14.3253 21.548C14.6599 21.6834 14.9076 21.6849 15.2413 21.5679C15.6519 21.3046 15.763 20.8798 15.9069 20.4394C15.9308 20.3681 15.9548 20.2968 15.9795 20.2234C16.0458 20.0262 16.1111 19.8287 16.1763 19.6312C16.2468 19.4179 16.3182 19.205 16.3896 18.992C16.529 18.5751 16.6676 18.158 16.8059 17.7407C16.9669 17.255 17.1288 16.7696 17.2906 16.2842C17.5793 15.4185 17.8672 14.5525 18.1547 13.6863C18.4338 12.8453 18.7136 12.0044 18.9939 11.1638C19.3479 10.1026 19.7013 9.04124 20.0543 7.97975C20.1669 7.641 20.2798 7.30231 20.3927 6.96365C20.5301 6.55139 20.6672 6.13902 20.8039 5.72651C20.8736 5.5159 20.9436 5.30535 21.0139 5.09491C21.0899 4.86728 21.1653 4.63943 21.2406 4.41155C21.2631 4.34442 21.2857 4.27729 21.3089 4.20812C21.3288 4.14749 21.3487 4.08685 21.3692 4.02438C21.3867 3.97175 21.4042 3.91912 21.4222 3.86489C21.4664 3.73716 21.4664 3.73716 21.3932 3.62197Z" fill="black"/>
</svg>
