<svg width="90" height="114" viewBox="0 0 90 114" fill="none" xmlns="http://www.w3.org/2000/svg">
<g filter="url(#filter0_d_211_5801)">
<path d="M82.2898 8.57669V3H78.5305C78.5305 5.02196 76.9624 6.66344 75.0205 6.66344C73.0785 6.66344 71.5104 5.02196 71.5104 3H68.395C68.395 5.02196 66.8269 6.66344 64.8849 6.66344C62.943 6.66344 61.3748 5.02196 61.3748 3H58.2594C58.2594 5.02196 56.6913 6.66344 54.7493 6.66344C52.8074 6.66344 51.2393 5.02196 51.2393 3H48.1238C48.1238 5.02196 46.5557 6.66344 44.6138 6.66344C42.6718 6.66344 41.1037 5.02196 41.1037 3H37.9883C37.9883 5.02196 36.4202 6.66344 34.4782 6.66344C32.5362 6.66344 30.9681 5.02196 30.9681 3H27.8527C27.8527 5.02196 26.2846 6.66344 24.3426 6.66344C22.4007 6.66344 20.8326 5.02196 20.8326 3H17.7171C17.7171 5.02196 16.149 6.66344 14.2174 6.66344C12.2859 6.66344 10.7593 5.02196 10.7593 3H7V8.57669C8.93157 8.57669 10.5101 10.2182 10.5101 12.2401C10.5101 14.2621 8.94196 15.9036 7 15.9036V18.7517C8.93157 18.7517 10.5101 20.3932 10.5101 22.4152C10.5101 24.4371 8.94196 26.0786 7 26.0786V28.9267C8.93157 28.9267 10.5101 30.5682 10.5101 32.5902C10.5101 34.6121 8.94196 36.2536 7 36.2536V39.1017C8.93157 39.1017 10.5101 40.7432 10.5101 42.7652C10.5101 44.7872 8.94196 46.4395 7 46.4395V49.2876C8.93157 49.2876 10.5101 50.9291 10.5101 52.962C10.5101 54.9948 8.94196 56.6363 7 56.6363V59.4844C8.93157 59.4844 10.5101 61.1259 10.5101 63.1587C10.5101 65.1915 8.94196 66.833 7 66.833V69.6812C8.93157 69.6812 10.5101 71.3226 10.5101 73.3555C10.5101 75.3883 8.94196 77.0298 7 77.0298V79.8779C8.93157 79.8779 10.5101 81.5194 10.5101 83.5522C10.5101 85.5851 8.94196 87.2265 7 87.2265V90.0747C8.93157 90.0747 10.5101 91.7162 10.5101 93.749C10.5101 95.7818 8.94196 97.4233 7 97.4233V103H10.7593C10.7593 100.978 12.3274 99.3257 14.2694 99.3257C16.2113 99.3257 17.769 100.967 17.769 103H20.8845C20.8845 100.978 22.4526 99.3257 24.3946 99.3257C26.3365 99.3257 27.9046 100.967 27.9046 103H31.0201C31.0201 100.978 32.5882 99.3257 34.5301 99.3257C36.4721 99.3257 38.0402 100.967 38.0402 103H41.1556C41.1556 100.978 42.7237 99.3257 44.6657 99.3257C46.6077 99.3257 48.1758 100.967 48.1758 103H51.2912C51.2912 100.978 52.8593 99.3257 54.8013 99.3257C56.7432 99.3257 58.3113 100.967 58.3113 103H61.4268C61.4268 100.978 62.9949 99.3257 64.9368 99.3257C66.8788 99.3257 68.4469 100.967 68.4469 103H71.5623C71.5623 100.978 73.1304 99.3257 75.0724 99.3257C77.0144 99.3257 78.5825 100.967 78.5825 103H82.3418V97.4233C80.4102 97.4233 78.8317 95.7818 78.8317 93.749C78.8317 91.7162 80.3998 90.0747 82.3418 90.0747V87.2265C80.4102 87.2265 78.8317 85.5851 78.8317 83.5522C78.8317 81.5194 80.3998 79.8779 82.3418 79.8779V77.0298C80.4102 77.0298 78.8317 75.3883 78.8317 73.3555C78.8317 71.3226 80.3998 69.6812 82.3418 69.6812V66.833C80.4102 66.833 78.8317 65.1915 78.8317 63.1587C78.8317 61.1259 80.3998 59.4844 82.3418 59.4844V56.6363C80.4102 56.6363 78.8317 54.9948 78.8317 52.962C78.8317 50.9291 80.3998 49.2876 82.3418 49.2876V46.4395C80.4102 46.4395 78.8317 44.798 78.8317 42.7652C78.8317 40.7324 80.3998 39.1017 82.3418 39.1017V36.2536C80.4102 36.2536 78.8317 34.6121 78.8317 32.5902C78.8317 30.5682 80.3998 28.9267 82.3418 28.9267V26.0786C80.4102 26.0786 78.8317 24.4371 78.8317 22.4152C78.8317 20.3932 80.3998 18.7517 82.3418 18.7517V15.9036C80.4102 15.9036 78.8317 14.2621 78.8317 12.2401C78.8317 10.2182 80.3998 8.57669 82.3418 8.57669H82.2898Z" fill="#DECBA1"/>
</g>
<defs>
<filter id="filter0_d_211_5801" x="0" y="0" width="89.3418" height="114" filterUnits="userSpaceOnUse" color-interpolation-filters="sRGB">
<feFlood flood-opacity="0" result="BackgroundImageFix"/>
<feColorMatrix in="SourceAlpha" type="matrix" values="0 0 0 0 0 0 0 0 0 0 0 0 0 0 0 0 0 0 127 0" result="hardAlpha"/>
<feOffset dy="4"/>
<feGaussianBlur stdDeviation="3.5"/>
<feComposite in2="hardAlpha" operator="out"/>
<feColorMatrix type="matrix" values="0 0 0 0 0.209936 0 0 0 0 0.0308399 0 0 0 0 0.0308399 0 0 0 0.51 0"/>
<feBlend mode="normal" in2="BackgroundImageFix" result="effect1_dropShadow_211_5801"/>
<feBlend mode="normal" in="SourceGraphic" in2="effect1_dropShadow_211_5801" result="shape"/>
</filter>
</defs>
</svg>
